<svg width="23" height="18" viewBox="0 0 23 18" fill="none" xmlns="http://www.w3.org/2000/svg">
<path d="M21.4846 0.77014C21.3883 0.760214 21.2912 0.760214 21.1949 0.77014H1.40679C1.27996 0.772094 1.15398 0.791111 1.03223 0.826677L11.2443 10.9964L21.4846 0.77014Z" fill="#161616"/>
<path d="M22.5302 1.75253L12.2404 11.9999C11.9755 12.2632 11.6173 12.411 11.2439 12.411C10.8705 12.411 10.5122 12.2632 10.2474 11.9999L0.0494703 1.83027C0.0181198 1.9455 0.00149731 2.06423 0 2.18363V16.318C0 16.6929 0.148915 17.0524 0.413986 17.3174C0.679057 17.5825 1.03857 17.7314 1.41344 17.7314H21.2015C21.5764 17.7314 21.9359 17.5825 22.201 17.3174C22.4661 17.0524 22.615 16.6929 22.615 16.318V2.18363C22.6094 2.03639 22.5807 1.89093 22.5302 1.75253ZM2.38164 16.318H1.3993V15.3074L6.53714 10.2119L7.53361 11.2084L2.38164 16.318ZM21.1874 16.318H20.198L15.046 11.2084L16.0425 10.2119L21.1803 15.3074L21.1874 16.318Z" fill="#161616"/>
</svg>
